<mxfile host="app.diagrams.net" modified="2021-03-16T17:49:24.175Z" agent="5.0 (Windows)" etag="wTFofTyQq6TbZZ2rnHF3" version="14.4.8" type="github">
  <diagram id="C5RBs43oDa-KdzZeNtuy" name="Page-1">
    <mxGraphModel dx="2048" dy="655" grid="1" gridSize="10" guides="1" tooltips="1" connect="1" arrows="1" fold="1" page="1" pageScale="1" pageWidth="827" pageHeight="1169" math="0" shadow="0">
      <root>
        <mxCell id="WIyWlLk6GJQsqaUBKTNV-0" />
        <mxCell id="WIyWlLk6GJQsqaUBKTNV-1" parent="WIyWlLk6GJQsqaUBKTNV-0" />
        <mxCell id="4a5pVwGopF1X1H-UKAvK-5" value="User" style="shape=table;html=1;whiteSpace=wrap;startSize=30;container=1;collapsible=0;childLayout=tableLayout;fixedRows=1;rowLines=0;fontStyle=1;align=center;fillColor=#e51400;strokeColor=#B20000;fontColor=#ffffff;" vertex="1" parent="WIyWlLk6GJQsqaUBKTNV-1">
          <mxGeometry x="-30" y="10" width="210" height="190" as="geometry" />
        </mxCell>
        <mxCell id="4a5pVwGopF1X1H-UKAvK-6" value="" style="shape=partialRectangle;html=1;whiteSpace=wrap;collapsible=0;dropTarget=0;pointerEvents=0;fillColor=none;top=0;left=0;bottom=1;right=0;points=[[0,0.5],[1,0.5]];portConstraint=eastwest;" vertex="1" parent="4a5pVwGopF1X1H-UKAvK-5">
          <mxGeometry y="30" width="210" height="30" as="geometry" />
        </mxCell>
        <mxCell id="4a5pVwGopF1X1H-UKAvK-7" value="PK" style="shape=partialRectangle;html=1;whiteSpace=wrap;connectable=0;fillColor=none;top=0;left=0;bottom=0;right=0;overflow=hidden;fontStyle=1" vertex="1" parent="4a5pVwGopF1X1H-UKAvK-6">
          <mxGeometry width="40" height="30" as="geometry" />
        </mxCell>
        <mxCell id="4a5pVwGopF1X1H-UKAvK-8" value="User_id (int15)" style="shape=partialRectangle;html=1;whiteSpace=wrap;connectable=0;fillColor=none;top=0;left=0;bottom=0;right=0;align=left;spacingLeft=6;overflow=hidden;fontStyle=1" vertex="1" parent="4a5pVwGopF1X1H-UKAvK-6">
          <mxGeometry x="40" width="170" height="30" as="geometry" />
        </mxCell>
        <mxCell id="4a5pVwGopF1X1H-UKAvK-170" value="" style="shape=partialRectangle;html=1;whiteSpace=wrap;collapsible=0;dropTarget=0;pointerEvents=0;fillColor=none;top=0;left=0;bottom=0;right=0;points=[[0,0.5],[1,0.5]];portConstraint=eastwest;" vertex="1" parent="4a5pVwGopF1X1H-UKAvK-5">
          <mxGeometry y="60" width="210" height="30" as="geometry" />
        </mxCell>
        <mxCell id="4a5pVwGopF1X1H-UKAvK-171" value="" style="shape=partialRectangle;html=1;whiteSpace=wrap;connectable=0;fillColor=none;top=0;left=0;bottom=0;right=0;overflow=hidden;" vertex="1" parent="4a5pVwGopF1X1H-UKAvK-170">
          <mxGeometry width="40" height="30" as="geometry" />
        </mxCell>
        <mxCell id="4a5pVwGopF1X1H-UKAvK-172" value="user_login(varchar 100)" style="shape=partialRectangle;html=1;whiteSpace=wrap;connectable=0;fillColor=none;top=0;left=0;bottom=0;right=0;align=left;spacingLeft=6;overflow=hidden;" vertex="1" parent="4a5pVwGopF1X1H-UKAvK-170">
          <mxGeometry x="40" width="170" height="30" as="geometry" />
        </mxCell>
        <mxCell id="4a5pVwGopF1X1H-UKAvK-9" value="" style="shape=partialRectangle;html=1;whiteSpace=wrap;collapsible=0;dropTarget=0;pointerEvents=0;fillColor=none;top=0;left=0;bottom=0;right=0;points=[[0,0.5],[1,0.5]];portConstraint=eastwest;" vertex="1" parent="4a5pVwGopF1X1H-UKAvK-5">
          <mxGeometry y="90" width="210" height="30" as="geometry" />
        </mxCell>
        <mxCell id="4a5pVwGopF1X1H-UKAvK-10" value="" style="shape=partialRectangle;html=1;whiteSpace=wrap;connectable=0;fillColor=none;top=0;left=0;bottom=0;right=0;overflow=hidden;" vertex="1" parent="4a5pVwGopF1X1H-UKAvK-9">
          <mxGeometry width="40" height="30" as="geometry" />
        </mxCell>
        <mxCell id="4a5pVwGopF1X1H-UKAvK-11" value="user_name(varchar 100)" style="shape=partialRectangle;html=1;whiteSpace=wrap;connectable=0;fillColor=none;top=0;left=0;bottom=0;right=0;align=left;spacingLeft=6;overflow=hidden;" vertex="1" parent="4a5pVwGopF1X1H-UKAvK-9">
          <mxGeometry x="40" width="170" height="30" as="geometry" />
        </mxCell>
        <mxCell id="4a5pVwGopF1X1H-UKAvK-12" value="" style="shape=partialRectangle;html=1;whiteSpace=wrap;collapsible=0;dropTarget=0;pointerEvents=0;fillColor=none;top=0;left=0;bottom=0;right=0;points=[[0,0.5],[1,0.5]];portConstraint=eastwest;" vertex="1" parent="4a5pVwGopF1X1H-UKAvK-5">
          <mxGeometry y="120" width="210" height="30" as="geometry" />
        </mxCell>
        <mxCell id="4a5pVwGopF1X1H-UKAvK-13" value="" style="shape=partialRectangle;html=1;whiteSpace=wrap;connectable=0;fillColor=none;top=0;left=0;bottom=0;right=0;overflow=hidden;" vertex="1" parent="4a5pVwGopF1X1H-UKAvK-12">
          <mxGeometry width="40" height="30" as="geometry" />
        </mxCell>
        <mxCell id="4a5pVwGopF1X1H-UKAvK-14" value="user_password (varchar100)" style="shape=partialRectangle;html=1;whiteSpace=wrap;connectable=0;fillColor=none;top=0;left=0;bottom=0;right=0;align=left;spacingLeft=6;overflow=hidden;" vertex="1" parent="4a5pVwGopF1X1H-UKAvK-12">
          <mxGeometry x="40" width="170" height="30" as="geometry" />
        </mxCell>
        <mxCell id="4a5pVwGopF1X1H-UKAvK-28" value="" style="shape=partialRectangle;html=1;whiteSpace=wrap;collapsible=0;dropTarget=0;pointerEvents=0;fillColor=none;top=0;left=0;bottom=0;right=0;points=[[0,0.5],[1,0.5]];portConstraint=eastwest;" vertex="1" parent="4a5pVwGopF1X1H-UKAvK-5">
          <mxGeometry y="150" width="210" height="30" as="geometry" />
        </mxCell>
        <mxCell id="4a5pVwGopF1X1H-UKAvK-29" value="" style="shape=partialRectangle;html=1;whiteSpace=wrap;connectable=0;fillColor=none;top=0;left=0;bottom=0;right=0;overflow=hidden;" vertex="1" parent="4a5pVwGopF1X1H-UKAvK-28">
          <mxGeometry width="40" height="30" as="geometry" />
        </mxCell>
        <mxCell id="4a5pVwGopF1X1H-UKAvK-30" value="user_email (varchar 100)" style="shape=partialRectangle;html=1;whiteSpace=wrap;connectable=0;fillColor=none;top=0;left=0;bottom=0;right=0;align=left;spacingLeft=6;overflow=hidden;" vertex="1" parent="4a5pVwGopF1X1H-UKAvK-28">
          <mxGeometry x="40" width="170" height="30" as="geometry" />
        </mxCell>
        <mxCell id="4a5pVwGopF1X1H-UKAvK-151" style="edgeStyle=none;rounded=0;orthogonalLoop=1;jettySize=auto;html=1;entryX=1;entryY=0.5;entryDx=0;entryDy=0;" edge="1" parent="4a5pVwGopF1X1H-UKAvK-5" source="4a5pVwGopF1X1H-UKAvK-9" target="4a5pVwGopF1X1H-UKAvK-9">
          <mxGeometry relative="1" as="geometry" />
        </mxCell>
        <mxCell id="4a5pVwGopF1X1H-UKAvK-34" value="Films" style="shape=table;html=1;whiteSpace=wrap;startSize=30;container=1;collapsible=0;childLayout=tableLayout;fixedRows=1;rowLines=0;fontStyle=1;align=center;gradientColor=#b3b3b3;fillColor=#f5f5f5;strokeColor=#666666;" vertex="1" parent="WIyWlLk6GJQsqaUBKTNV-1">
          <mxGeometry x="-20" y="250" width="220" height="230" as="geometry" />
        </mxCell>
        <mxCell id="4a5pVwGopF1X1H-UKAvK-35" value="" style="shape=partialRectangle;html=1;whiteSpace=wrap;collapsible=0;dropTarget=0;pointerEvents=0;fillColor=none;top=0;left=0;bottom=1;right=0;points=[[0,0.5],[1,0.5]];portConstraint=eastwest;" vertex="1" parent="4a5pVwGopF1X1H-UKAvK-34">
          <mxGeometry y="30" width="220" height="30" as="geometry" />
        </mxCell>
        <mxCell id="4a5pVwGopF1X1H-UKAvK-36" value="PK" style="shape=partialRectangle;html=1;whiteSpace=wrap;connectable=0;fillColor=none;top=0;left=0;bottom=0;right=0;overflow=hidden;fontStyle=1" vertex="1" parent="4a5pVwGopF1X1H-UKAvK-35">
          <mxGeometry width="50" height="30" as="geometry" />
        </mxCell>
        <mxCell id="4a5pVwGopF1X1H-UKAvK-37" value="Films_id (int15)" style="shape=partialRectangle;html=1;whiteSpace=wrap;connectable=0;fillColor=none;top=0;left=0;bottom=0;right=0;align=left;spacingLeft=6;overflow=hidden;fontStyle=1" vertex="1" parent="4a5pVwGopF1X1H-UKAvK-35">
          <mxGeometry x="50" width="170" height="30" as="geometry" />
        </mxCell>
        <mxCell id="4a5pVwGopF1X1H-UKAvK-38" value="" style="shape=partialRectangle;html=1;whiteSpace=wrap;collapsible=0;dropTarget=0;pointerEvents=0;fillColor=none;top=0;left=0;bottom=0;right=0;points=[[0,0.5],[1,0.5]];portConstraint=eastwest;" vertex="1" parent="4a5pVwGopF1X1H-UKAvK-34">
          <mxGeometry y="60" width="220" height="30" as="geometry" />
        </mxCell>
        <mxCell id="4a5pVwGopF1X1H-UKAvK-39" value="FK" style="shape=partialRectangle;html=1;whiteSpace=wrap;connectable=0;fillColor=none;top=0;left=0;bottom=0;right=0;overflow=hidden;fontStyle=1" vertex="1" parent="4a5pVwGopF1X1H-UKAvK-38">
          <mxGeometry width="50" height="30" as="geometry" />
        </mxCell>
        <mxCell id="4a5pVwGopF1X1H-UKAvK-40" value="category_name (varchar100)" style="shape=partialRectangle;html=1;whiteSpace=wrap;connectable=0;fillColor=none;top=0;left=0;bottom=0;right=0;align=left;spacingLeft=6;overflow=hidden;" vertex="1" parent="4a5pVwGopF1X1H-UKAvK-38">
          <mxGeometry x="50" width="170" height="30" as="geometry" />
        </mxCell>
        <mxCell id="4a5pVwGopF1X1H-UKAvK-41" value="" style="shape=partialRectangle;html=1;whiteSpace=wrap;collapsible=0;dropTarget=0;pointerEvents=0;fillColor=none;top=0;left=0;bottom=0;right=0;points=[[0,0.5],[1,0.5]];portConstraint=eastwest;" vertex="1" parent="4a5pVwGopF1X1H-UKAvK-34">
          <mxGeometry y="90" width="220" height="30" as="geometry" />
        </mxCell>
        <mxCell id="4a5pVwGopF1X1H-UKAvK-42" value="" style="shape=partialRectangle;html=1;whiteSpace=wrap;connectable=0;fillColor=none;top=0;left=0;bottom=0;right=0;overflow=hidden;" vertex="1" parent="4a5pVwGopF1X1H-UKAvK-41">
          <mxGeometry width="50" height="30" as="geometry" />
        </mxCell>
        <mxCell id="4a5pVwGopF1X1H-UKAvK-43" value="film_name (varchar100)" style="shape=partialRectangle;html=1;whiteSpace=wrap;connectable=0;fillColor=none;top=0;left=0;bottom=0;right=0;align=left;spacingLeft=6;overflow=hidden;" vertex="1" parent="4a5pVwGopF1X1H-UKAvK-41">
          <mxGeometry x="50" width="170" height="30" as="geometry" />
        </mxCell>
        <mxCell id="4a5pVwGopF1X1H-UKAvK-96" value="" style="shape=partialRectangle;html=1;whiteSpace=wrap;collapsible=0;dropTarget=0;pointerEvents=0;fillColor=none;top=0;left=0;bottom=0;right=0;points=[[0,0.5],[1,0.5]];portConstraint=eastwest;" vertex="1" parent="4a5pVwGopF1X1H-UKAvK-34">
          <mxGeometry y="120" width="220" height="30" as="geometry" />
        </mxCell>
        <mxCell id="4a5pVwGopF1X1H-UKAvK-97" value="FK" style="shape=partialRectangle;html=1;whiteSpace=wrap;connectable=0;fillColor=none;top=0;left=0;bottom=0;right=0;overflow=hidden;fontStyle=1" vertex="1" parent="4a5pVwGopF1X1H-UKAvK-96">
          <mxGeometry width="50" height="30" as="geometry" />
        </mxCell>
        <mxCell id="4a5pVwGopF1X1H-UKAvK-98" value="producer_name (varchar100)" style="shape=partialRectangle;html=1;whiteSpace=wrap;connectable=0;fillColor=none;top=0;left=0;bottom=0;right=0;align=left;spacingLeft=6;overflow=hidden;" vertex="1" parent="4a5pVwGopF1X1H-UKAvK-96">
          <mxGeometry x="50" width="170" height="30" as="geometry" />
        </mxCell>
        <mxCell id="4a5pVwGopF1X1H-UKAvK-113" value="" style="shape=partialRectangle;html=1;whiteSpace=wrap;collapsible=0;dropTarget=0;pointerEvents=0;fillColor=none;top=0;left=0;bottom=0;right=0;points=[[0,0.5],[1,0.5]];portConstraint=eastwest;" vertex="1" parent="4a5pVwGopF1X1H-UKAvK-34">
          <mxGeometry y="150" width="220" height="30" as="geometry" />
        </mxCell>
        <mxCell id="4a5pVwGopF1X1H-UKAvK-114" value="" style="shape=partialRectangle;html=1;whiteSpace=wrap;connectable=0;fillColor=none;top=0;left=0;bottom=0;right=0;overflow=hidden;" vertex="1" parent="4a5pVwGopF1X1H-UKAvK-113">
          <mxGeometry width="50" height="30" as="geometry" />
        </mxCell>
        <mxCell id="4a5pVwGopF1X1H-UKAvK-115" value="film_year (varchar100)" style="shape=partialRectangle;html=1;whiteSpace=wrap;connectable=0;fillColor=none;top=0;left=0;bottom=0;right=0;align=left;spacingLeft=6;overflow=hidden;" vertex="1" parent="4a5pVwGopF1X1H-UKAvK-113">
          <mxGeometry x="50" width="170" height="30" as="geometry" />
        </mxCell>
        <mxCell id="4a5pVwGopF1X1H-UKAvK-154" value="" style="shape=partialRectangle;html=1;whiteSpace=wrap;collapsible=0;dropTarget=0;pointerEvents=0;fillColor=none;top=0;left=0;bottom=0;right=0;points=[[0,0.5],[1,0.5]];portConstraint=eastwest;" vertex="1" parent="4a5pVwGopF1X1H-UKAvK-34">
          <mxGeometry y="180" width="220" height="30" as="geometry" />
        </mxCell>
        <mxCell id="4a5pVwGopF1X1H-UKAvK-155" value="FK" style="shape=partialRectangle;html=1;whiteSpace=wrap;connectable=0;fillColor=none;top=0;left=0;bottom=0;right=0;overflow=hidden;fontStyle=1" vertex="1" parent="4a5pVwGopF1X1H-UKAvK-154">
          <mxGeometry width="50" height="30" as="geometry" />
        </mxCell>
        <mxCell id="4a5pVwGopF1X1H-UKAvK-156" value="film_restriction (varchar100)" style="shape=partialRectangle;html=1;whiteSpace=wrap;connectable=0;fillColor=none;top=0;left=0;bottom=0;right=0;align=left;spacingLeft=6;overflow=hidden;" vertex="1" parent="4a5pVwGopF1X1H-UKAvK-154">
          <mxGeometry x="50" width="170" height="30" as="geometry" />
        </mxCell>
        <mxCell id="4a5pVwGopF1X1H-UKAvK-99" value="" style="shape=partialRectangle;html=1;whiteSpace=wrap;collapsible=0;dropTarget=0;pointerEvents=0;fillColor=none;top=0;left=0;bottom=0;right=0;points=[[0,0.5],[1,0.5]];portConstraint=eastwest;" vertex="1" parent="4a5pVwGopF1X1H-UKAvK-34">
          <mxGeometry y="210" width="220" height="20" as="geometry" />
        </mxCell>
        <mxCell id="4a5pVwGopF1X1H-UKAvK-100" value="" style="shape=partialRectangle;html=1;whiteSpace=wrap;connectable=0;fillColor=none;top=0;left=0;bottom=0;right=0;overflow=hidden;" vertex="1" parent="4a5pVwGopF1X1H-UKAvK-99">
          <mxGeometry width="50" height="20" as="geometry" />
        </mxCell>
        <mxCell id="4a5pVwGopF1X1H-UKAvK-101" value="" style="shape=partialRectangle;html=1;whiteSpace=wrap;connectable=0;fillColor=none;top=0;left=0;bottom=0;right=0;align=left;spacingLeft=6;overflow=hidden;" vertex="1" parent="4a5pVwGopF1X1H-UKAvK-99">
          <mxGeometry x="50" width="170" height="20" as="geometry" />
        </mxCell>
        <mxCell id="4a5pVwGopF1X1H-UKAvK-45" value="Serial" style="shape=table;html=1;whiteSpace=wrap;startSize=30;container=1;collapsible=0;childLayout=tableLayout;fixedRows=1;rowLines=0;fontStyle=1;align=center;gradientColor=#7ea6e0;fillColor=#dae8fc;strokeColor=#6c8ebf;" vertex="1" parent="WIyWlLk6GJQsqaUBKTNV-1">
          <mxGeometry x="300" y="240" width="210" height="230" as="geometry" />
        </mxCell>
        <mxCell id="4a5pVwGopF1X1H-UKAvK-46" value="" style="shape=partialRectangle;html=1;whiteSpace=wrap;collapsible=0;dropTarget=0;pointerEvents=0;fillColor=none;top=0;left=0;bottom=1;right=0;points=[[0,0.5],[1,0.5]];portConstraint=eastwest;" vertex="1" parent="4a5pVwGopF1X1H-UKAvK-45">
          <mxGeometry y="30" width="210" height="30" as="geometry" />
        </mxCell>
        <mxCell id="4a5pVwGopF1X1H-UKAvK-47" value="PK" style="shape=partialRectangle;html=1;whiteSpace=wrap;connectable=0;fillColor=none;top=0;left=0;bottom=0;right=0;overflow=hidden;fontStyle=1" vertex="1" parent="4a5pVwGopF1X1H-UKAvK-46">
          <mxGeometry width="40" height="30" as="geometry" />
        </mxCell>
        <mxCell id="4a5pVwGopF1X1H-UKAvK-48" value="Serial_id (int20)" style="shape=partialRectangle;html=1;whiteSpace=wrap;connectable=0;fillColor=none;top=0;left=0;bottom=0;right=0;align=left;spacingLeft=6;overflow=hidden;fontStyle=1" vertex="1" parent="4a5pVwGopF1X1H-UKAvK-46">
          <mxGeometry x="40" width="170" height="30" as="geometry" />
        </mxCell>
        <mxCell id="4a5pVwGopF1X1H-UKAvK-49" value="" style="shape=partialRectangle;html=1;whiteSpace=wrap;collapsible=0;dropTarget=0;pointerEvents=0;fillColor=none;top=0;left=0;bottom=0;right=0;points=[[0,0.5],[1,0.5]];portConstraint=eastwest;" vertex="1" parent="4a5pVwGopF1X1H-UKAvK-45">
          <mxGeometry y="60" width="210" height="30" as="geometry" />
        </mxCell>
        <mxCell id="4a5pVwGopF1X1H-UKAvK-50" value="FK" style="shape=partialRectangle;html=1;whiteSpace=wrap;connectable=0;fillColor=none;top=0;left=0;bottom=0;right=0;overflow=hidden;fontStyle=1" vertex="1" parent="4a5pVwGopF1X1H-UKAvK-49">
          <mxGeometry width="40" height="30" as="geometry" />
        </mxCell>
        <mxCell id="4a5pVwGopF1X1H-UKAvK-51" value="category_name (varchar100)" style="shape=partialRectangle;html=1;whiteSpace=wrap;connectable=0;fillColor=none;top=0;left=0;bottom=0;right=0;align=left;spacingLeft=6;overflow=hidden;" vertex="1" parent="4a5pVwGopF1X1H-UKAvK-49">
          <mxGeometry x="40" width="170" height="30" as="geometry" />
        </mxCell>
        <mxCell id="4a5pVwGopF1X1H-UKAvK-52" value="" style="shape=partialRectangle;html=1;whiteSpace=wrap;collapsible=0;dropTarget=0;pointerEvents=0;fillColor=none;top=0;left=0;bottom=0;right=0;points=[[0,0.5],[1,0.5]];portConstraint=eastwest;" vertex="1" parent="4a5pVwGopF1X1H-UKAvK-45">
          <mxGeometry y="90" width="210" height="30" as="geometry" />
        </mxCell>
        <mxCell id="4a5pVwGopF1X1H-UKAvK-53" value="" style="shape=partialRectangle;html=1;whiteSpace=wrap;connectable=0;fillColor=none;top=0;left=0;bottom=0;right=0;overflow=hidden;" vertex="1" parent="4a5pVwGopF1X1H-UKAvK-52">
          <mxGeometry width="40" height="30" as="geometry" />
        </mxCell>
        <mxCell id="4a5pVwGopF1X1H-UKAvK-54" value="serial_name (varchar100)" style="shape=partialRectangle;html=1;whiteSpace=wrap;connectable=0;fillColor=none;top=0;left=0;bottom=0;right=0;align=left;spacingLeft=6;overflow=hidden;" vertex="1" parent="4a5pVwGopF1X1H-UKAvK-52">
          <mxGeometry x="40" width="170" height="30" as="geometry" />
        </mxCell>
        <mxCell id="4a5pVwGopF1X1H-UKAvK-102" value="" style="shape=partialRectangle;html=1;whiteSpace=wrap;collapsible=0;dropTarget=0;pointerEvents=0;fillColor=none;top=0;left=0;bottom=0;right=0;points=[[0,0.5],[1,0.5]];portConstraint=eastwest;" vertex="1" parent="4a5pVwGopF1X1H-UKAvK-45">
          <mxGeometry y="120" width="210" height="30" as="geometry" />
        </mxCell>
        <mxCell id="4a5pVwGopF1X1H-UKAvK-103" value="FK" style="shape=partialRectangle;html=1;whiteSpace=wrap;connectable=0;fillColor=none;top=0;left=0;bottom=0;right=0;overflow=hidden;fontStyle=1" vertex="1" parent="4a5pVwGopF1X1H-UKAvK-102">
          <mxGeometry width="40" height="30" as="geometry" />
        </mxCell>
        <mxCell id="4a5pVwGopF1X1H-UKAvK-104" value="producer_name (varchar100)" style="shape=partialRectangle;html=1;whiteSpace=wrap;connectable=0;fillColor=none;top=0;left=0;bottom=0;right=0;align=left;spacingLeft=6;overflow=hidden;" vertex="1" parent="4a5pVwGopF1X1H-UKAvK-102">
          <mxGeometry x="40" width="170" height="30" as="geometry" />
        </mxCell>
        <mxCell id="4a5pVwGopF1X1H-UKAvK-116" value="" style="shape=partialRectangle;html=1;whiteSpace=wrap;collapsible=0;dropTarget=0;pointerEvents=0;fillColor=none;top=0;left=0;bottom=0;right=0;points=[[0,0.5],[1,0.5]];portConstraint=eastwest;" vertex="1" parent="4a5pVwGopF1X1H-UKAvK-45">
          <mxGeometry y="150" width="210" height="30" as="geometry" />
        </mxCell>
        <mxCell id="4a5pVwGopF1X1H-UKAvK-117" value="" style="shape=partialRectangle;html=1;whiteSpace=wrap;connectable=0;fillColor=none;top=0;left=0;bottom=0;right=0;overflow=hidden;" vertex="1" parent="4a5pVwGopF1X1H-UKAvK-116">
          <mxGeometry width="40" height="30" as="geometry" />
        </mxCell>
        <mxCell id="4a5pVwGopF1X1H-UKAvK-118" value="serial_yaer (varchar100)" style="shape=partialRectangle;html=1;whiteSpace=wrap;connectable=0;fillColor=none;top=0;left=0;bottom=0;right=0;align=left;spacingLeft=6;overflow=hidden;" vertex="1" parent="4a5pVwGopF1X1H-UKAvK-116">
          <mxGeometry x="40" width="170" height="30" as="geometry" />
        </mxCell>
        <mxCell id="4a5pVwGopF1X1H-UKAvK-157" value="" style="shape=partialRectangle;html=1;whiteSpace=wrap;collapsible=0;dropTarget=0;pointerEvents=0;fillColor=none;top=0;left=0;bottom=0;right=0;points=[[0,0.5],[1,0.5]];portConstraint=eastwest;" vertex="1" parent="4a5pVwGopF1X1H-UKAvK-45">
          <mxGeometry y="180" width="210" height="30" as="geometry" />
        </mxCell>
        <mxCell id="4a5pVwGopF1X1H-UKAvK-158" value="&lt;b&gt;FK&lt;/b&gt;" style="shape=partialRectangle;html=1;whiteSpace=wrap;connectable=0;fillColor=none;top=0;left=0;bottom=0;right=0;overflow=hidden;" vertex="1" parent="4a5pVwGopF1X1H-UKAvK-157">
          <mxGeometry width="40" height="30" as="geometry" />
        </mxCell>
        <mxCell id="4a5pVwGopF1X1H-UKAvK-159" value="serial_restriction (varchar100)" style="shape=partialRectangle;html=1;whiteSpace=wrap;connectable=0;fillColor=none;top=0;left=0;bottom=0;right=0;align=left;spacingLeft=6;overflow=hidden;" vertex="1" parent="4a5pVwGopF1X1H-UKAvK-157">
          <mxGeometry x="40" width="170" height="30" as="geometry" />
        </mxCell>
        <mxCell id="4a5pVwGopF1X1H-UKAvK-105" value="" style="shape=partialRectangle;html=1;whiteSpace=wrap;collapsible=0;dropTarget=0;pointerEvents=0;fillColor=none;top=0;left=0;bottom=0;right=0;points=[[0,0.5],[1,0.5]];portConstraint=eastwest;" vertex="1" parent="4a5pVwGopF1X1H-UKAvK-45">
          <mxGeometry y="210" width="210" height="20" as="geometry" />
        </mxCell>
        <mxCell id="4a5pVwGopF1X1H-UKAvK-106" value="" style="shape=partialRectangle;html=1;whiteSpace=wrap;connectable=0;fillColor=none;top=0;left=0;bottom=0;right=0;overflow=hidden;" vertex="1" parent="4a5pVwGopF1X1H-UKAvK-105">
          <mxGeometry width="40" height="20" as="geometry" />
        </mxCell>
        <mxCell id="4a5pVwGopF1X1H-UKAvK-107" value="" style="shape=partialRectangle;html=1;whiteSpace=wrap;connectable=0;fillColor=none;top=0;left=0;bottom=0;right=0;align=left;spacingLeft=6;overflow=hidden;" vertex="1" parent="4a5pVwGopF1X1H-UKAvK-105">
          <mxGeometry x="40" width="170" height="20" as="geometry" />
        </mxCell>
        <mxCell id="4a5pVwGopF1X1H-UKAvK-55" value="Category" style="shape=table;html=1;whiteSpace=wrap;startSize=30;container=1;collapsible=0;childLayout=tableLayout;fixedRows=1;rowLines=0;fontStyle=1;align=center;fillColor=#647687;strokeColor=#314354;fontColor=#ffffff;" vertex="1" parent="WIyWlLk6GJQsqaUBKTNV-1">
          <mxGeometry x="290" y="20" width="210" height="120" as="geometry" />
        </mxCell>
        <mxCell id="4a5pVwGopF1X1H-UKAvK-56" value="" style="shape=partialRectangle;html=1;whiteSpace=wrap;collapsible=0;dropTarget=0;pointerEvents=0;fillColor=none;top=0;left=0;bottom=1;right=0;points=[[0,0.5],[1,0.5]];portConstraint=eastwest;" vertex="1" parent="4a5pVwGopF1X1H-UKAvK-55">
          <mxGeometry y="30" width="210" height="30" as="geometry" />
        </mxCell>
        <mxCell id="4a5pVwGopF1X1H-UKAvK-57" value="PK" style="shape=partialRectangle;html=1;whiteSpace=wrap;connectable=0;fillColor=none;top=0;left=0;bottom=0;right=0;overflow=hidden;fontStyle=1" vertex="1" parent="4a5pVwGopF1X1H-UKAvK-56">
          <mxGeometry width="40" height="30" as="geometry" />
        </mxCell>
        <mxCell id="4a5pVwGopF1X1H-UKAvK-58" value="Category_id (int15)" style="shape=partialRectangle;html=1;whiteSpace=wrap;connectable=0;fillColor=none;top=0;left=0;bottom=0;right=0;align=left;spacingLeft=6;overflow=hidden;fontStyle=1" vertex="1" parent="4a5pVwGopF1X1H-UKAvK-56">
          <mxGeometry x="40" width="170" height="30" as="geometry" />
        </mxCell>
        <mxCell id="4a5pVwGopF1X1H-UKAvK-59" value="" style="shape=partialRectangle;html=1;whiteSpace=wrap;collapsible=0;dropTarget=0;pointerEvents=0;fillColor=none;top=0;left=0;bottom=0;right=0;points=[[0,0.5],[1,0.5]];portConstraint=eastwest;" vertex="1" parent="4a5pVwGopF1X1H-UKAvK-55">
          <mxGeometry y="60" width="210" height="30" as="geometry" />
        </mxCell>
        <mxCell id="4a5pVwGopF1X1H-UKAvK-60" value="" style="shape=partialRectangle;html=1;whiteSpace=wrap;connectable=0;fillColor=none;top=0;left=0;bottom=0;right=0;overflow=hidden;" vertex="1" parent="4a5pVwGopF1X1H-UKAvK-59">
          <mxGeometry width="40" height="30" as="geometry" />
        </mxCell>
        <mxCell id="4a5pVwGopF1X1H-UKAvK-61" value="category_name (varchar 100)" style="shape=partialRectangle;html=1;whiteSpace=wrap;connectable=0;fillColor=none;top=0;left=0;bottom=0;right=0;align=left;spacingLeft=6;overflow=hidden;" vertex="1" parent="4a5pVwGopF1X1H-UKAvK-59">
          <mxGeometry x="40" width="170" height="30" as="geometry" />
        </mxCell>
        <mxCell id="4a5pVwGopF1X1H-UKAvK-62" value="" style="shape=partialRectangle;html=1;whiteSpace=wrap;collapsible=0;dropTarget=0;pointerEvents=0;fillColor=none;top=0;left=0;bottom=0;right=0;points=[[0,0.5],[1,0.5]];portConstraint=eastwest;" vertex="1" parent="4a5pVwGopF1X1H-UKAvK-55">
          <mxGeometry y="90" width="210" height="30" as="geometry" />
        </mxCell>
        <mxCell id="4a5pVwGopF1X1H-UKAvK-63" value="" style="shape=partialRectangle;html=1;whiteSpace=wrap;connectable=0;fillColor=none;top=0;left=0;bottom=0;right=0;overflow=hidden;" vertex="1" parent="4a5pVwGopF1X1H-UKAvK-62">
          <mxGeometry width="40" height="30" as="geometry" />
        </mxCell>
        <mxCell id="4a5pVwGopF1X1H-UKAvK-64" value="" style="shape=partialRectangle;html=1;whiteSpace=wrap;connectable=0;fillColor=none;top=0;left=0;bottom=0;right=0;align=left;spacingLeft=6;overflow=hidden;" vertex="1" parent="4a5pVwGopF1X1H-UKAvK-62">
          <mxGeometry x="40" width="170" height="30" as="geometry" />
        </mxCell>
        <mxCell id="4a5pVwGopF1X1H-UKAvK-167" style="edgeStyle=none;rounded=0;orthogonalLoop=1;jettySize=auto;html=1;entryX=0;entryY=0.5;entryDx=0;entryDy=0;" edge="1" parent="4a5pVwGopF1X1H-UKAvK-55" source="4a5pVwGopF1X1H-UKAvK-56" target="4a5pVwGopF1X1H-UKAvK-56">
          <mxGeometry relative="1" as="geometry" />
        </mxCell>
        <mxCell id="4a5pVwGopF1X1H-UKAvK-168" style="edgeStyle=none;rounded=0;orthogonalLoop=1;jettySize=auto;html=1;entryX=0;entryY=0.5;entryDx=0;entryDy=0;" edge="1" parent="4a5pVwGopF1X1H-UKAvK-55" source="4a5pVwGopF1X1H-UKAvK-56" target="4a5pVwGopF1X1H-UKAvK-56">
          <mxGeometry relative="1" as="geometry" />
        </mxCell>
        <mxCell id="4a5pVwGopF1X1H-UKAvK-65" value="Producers" style="shape=table;html=1;whiteSpace=wrap;startSize=30;container=1;collapsible=0;childLayout=tableLayout;fixedRows=1;rowLines=0;fontStyle=1;align=center;fillColor=#fad9d5;strokeColor=#ae4132;" vertex="1" parent="WIyWlLk6GJQsqaUBKTNV-1">
          <mxGeometry x="250" y="525" width="220" height="120" as="geometry" />
        </mxCell>
        <mxCell id="4a5pVwGopF1X1H-UKAvK-66" value="" style="shape=partialRectangle;html=1;whiteSpace=wrap;collapsible=0;dropTarget=0;pointerEvents=0;fillColor=none;top=0;left=0;bottom=1;right=0;points=[[0,0.5],[1,0.5]];portConstraint=eastwest;" vertex="1" parent="4a5pVwGopF1X1H-UKAvK-65">
          <mxGeometry y="30" width="220" height="30" as="geometry" />
        </mxCell>
        <mxCell id="4a5pVwGopF1X1H-UKAvK-67" value="PK" style="shape=partialRectangle;html=1;whiteSpace=wrap;connectable=0;fillColor=none;top=0;left=0;bottom=0;right=0;overflow=hidden;fontStyle=1" vertex="1" parent="4a5pVwGopF1X1H-UKAvK-66">
          <mxGeometry width="40" height="30" as="geometry" />
        </mxCell>
        <mxCell id="4a5pVwGopF1X1H-UKAvK-68" value="producer_id (int15)" style="shape=partialRectangle;html=1;whiteSpace=wrap;connectable=0;fillColor=none;top=0;left=0;bottom=0;right=0;align=left;spacingLeft=6;overflow=hidden;fontStyle=1" vertex="1" parent="4a5pVwGopF1X1H-UKAvK-66">
          <mxGeometry x="40" width="180" height="30" as="geometry" />
        </mxCell>
        <mxCell id="4a5pVwGopF1X1H-UKAvK-69" value="" style="shape=partialRectangle;html=1;whiteSpace=wrap;collapsible=0;dropTarget=0;pointerEvents=0;fillColor=none;top=0;left=0;bottom=0;right=0;points=[[0,0.5],[1,0.5]];portConstraint=eastwest;" vertex="1" parent="4a5pVwGopF1X1H-UKAvK-65">
          <mxGeometry y="60" width="220" height="30" as="geometry" />
        </mxCell>
        <mxCell id="4a5pVwGopF1X1H-UKAvK-70" value="" style="shape=partialRectangle;html=1;whiteSpace=wrap;connectable=0;fillColor=none;top=0;left=0;bottom=0;right=0;overflow=hidden;" vertex="1" parent="4a5pVwGopF1X1H-UKAvK-69">
          <mxGeometry width="40" height="30" as="geometry" />
        </mxCell>
        <mxCell id="4a5pVwGopF1X1H-UKAvK-71" value="producer_name (varchar100)" style="shape=partialRectangle;html=1;whiteSpace=wrap;connectable=0;fillColor=none;top=0;left=0;bottom=0;right=0;align=left;spacingLeft=6;overflow=hidden;" vertex="1" parent="4a5pVwGopF1X1H-UKAvK-69">
          <mxGeometry x="40" width="180" height="30" as="geometry" />
        </mxCell>
        <mxCell id="4a5pVwGopF1X1H-UKAvK-72" value="" style="shape=partialRectangle;html=1;whiteSpace=wrap;collapsible=0;dropTarget=0;pointerEvents=0;fillColor=none;top=0;left=0;bottom=0;right=0;points=[[0,0.5],[1,0.5]];portConstraint=eastwest;" vertex="1" parent="4a5pVwGopF1X1H-UKAvK-65">
          <mxGeometry y="90" width="220" height="30" as="geometry" />
        </mxCell>
        <mxCell id="4a5pVwGopF1X1H-UKAvK-73" value="" style="shape=partialRectangle;html=1;whiteSpace=wrap;connectable=0;fillColor=none;top=0;left=0;bottom=0;right=0;overflow=hidden;" vertex="1" parent="4a5pVwGopF1X1H-UKAvK-72">
          <mxGeometry width="40" height="30" as="geometry" />
        </mxCell>
        <mxCell id="4a5pVwGopF1X1H-UKAvK-74" value="" style="shape=partialRectangle;html=1;whiteSpace=wrap;connectable=0;fillColor=none;top=0;left=0;bottom=0;right=0;align=left;spacingLeft=6;overflow=hidden;" vertex="1" parent="4a5pVwGopF1X1H-UKAvK-72">
          <mxGeometry x="40" width="180" height="30" as="geometry" />
        </mxCell>
        <mxCell id="4a5pVwGopF1X1H-UKAvK-123" value="Preferences" style="shape=table;html=1;whiteSpace=wrap;startSize=30;container=1;collapsible=0;childLayout=tableLayout;fixedRows=1;rowLines=0;fontStyle=1;align=center;fillColor=#fa6800;strokeColor=#C73500;fontColor=#ffffff;" vertex="1" parent="WIyWlLk6GJQsqaUBKTNV-1">
          <mxGeometry x="-310" y="90" width="180" height="180" as="geometry" />
        </mxCell>
        <mxCell id="4a5pVwGopF1X1H-UKAvK-124" value="" style="shape=partialRectangle;html=1;whiteSpace=wrap;collapsible=0;dropTarget=0;pointerEvents=0;fillColor=none;top=0;left=0;bottom=1;right=0;points=[[0,0.5],[1,0.5]];portConstraint=eastwest;" vertex="1" parent="4a5pVwGopF1X1H-UKAvK-123">
          <mxGeometry y="30" width="180" height="30" as="geometry" />
        </mxCell>
        <mxCell id="4a5pVwGopF1X1H-UKAvK-125" value="PK" style="shape=partialRectangle;html=1;whiteSpace=wrap;connectable=0;fillColor=none;top=0;left=0;bottom=0;right=0;overflow=hidden;fontStyle=1" vertex="1" parent="4a5pVwGopF1X1H-UKAvK-124">
          <mxGeometry width="40" height="30" as="geometry" />
        </mxCell>
        <mxCell id="4a5pVwGopF1X1H-UKAvK-126" value="preferens_id (int15)" style="shape=partialRectangle;html=1;whiteSpace=wrap;connectable=0;fillColor=none;top=0;left=0;bottom=0;right=0;align=left;spacingLeft=6;overflow=hidden;fontStyle=1" vertex="1" parent="4a5pVwGopF1X1H-UKAvK-124">
          <mxGeometry x="40" width="140" height="30" as="geometry" />
        </mxCell>
        <mxCell id="4a5pVwGopF1X1H-UKAvK-127" value="" style="shape=partialRectangle;html=1;whiteSpace=wrap;collapsible=0;dropTarget=0;pointerEvents=0;fillColor=none;top=0;left=0;bottom=0;right=0;points=[[0,0.5],[1,0.5]];portConstraint=eastwest;" vertex="1" parent="4a5pVwGopF1X1H-UKAvK-123">
          <mxGeometry y="60" width="180" height="30" as="geometry" />
        </mxCell>
        <mxCell id="4a5pVwGopF1X1H-UKAvK-128" value="FK" style="shape=partialRectangle;html=1;whiteSpace=wrap;connectable=0;fillColor=none;top=0;left=0;bottom=0;right=0;overflow=hidden;fontStyle=1" vertex="1" parent="4a5pVwGopF1X1H-UKAvK-127">
          <mxGeometry width="40" height="30" as="geometry" />
        </mxCell>
        <mxCell id="4a5pVwGopF1X1H-UKAvK-129" value="user_id (int10)" style="shape=partialRectangle;html=1;whiteSpace=wrap;connectable=0;fillColor=none;top=0;left=0;bottom=0;right=0;align=left;spacingLeft=6;overflow=hidden;" vertex="1" parent="4a5pVwGopF1X1H-UKAvK-127">
          <mxGeometry x="40" width="140" height="30" as="geometry" />
        </mxCell>
        <mxCell id="4a5pVwGopF1X1H-UKAvK-130" value="" style="shape=partialRectangle;html=1;whiteSpace=wrap;collapsible=0;dropTarget=0;pointerEvents=0;fillColor=none;top=0;left=0;bottom=0;right=0;points=[[0,0.5],[1,0.5]];portConstraint=eastwest;" vertex="1" parent="4a5pVwGopF1X1H-UKAvK-123">
          <mxGeometry y="90" width="180" height="30" as="geometry" />
        </mxCell>
        <mxCell id="4a5pVwGopF1X1H-UKAvK-131" value="FK" style="shape=partialRectangle;html=1;whiteSpace=wrap;connectable=0;fillColor=none;top=0;left=0;bottom=0;right=0;overflow=hidden;fontStyle=1" vertex="1" parent="4a5pVwGopF1X1H-UKAvK-130">
          <mxGeometry width="40" height="30" as="geometry" />
        </mxCell>
        <mxCell id="4a5pVwGopF1X1H-UKAvK-132" value="serial_id (int 25)" style="shape=partialRectangle;html=1;whiteSpace=wrap;connectable=0;fillColor=none;top=0;left=0;bottom=0;right=0;align=left;spacingLeft=6;overflow=hidden;" vertex="1" parent="4a5pVwGopF1X1H-UKAvK-130">
          <mxGeometry x="40" width="140" height="30" as="geometry" />
        </mxCell>
        <mxCell id="4a5pVwGopF1X1H-UKAvK-136" value="" style="shape=partialRectangle;html=1;whiteSpace=wrap;collapsible=0;dropTarget=0;pointerEvents=0;fillColor=none;top=0;left=0;bottom=0;right=0;points=[[0,0.5],[1,0.5]];portConstraint=eastwest;" vertex="1" parent="4a5pVwGopF1X1H-UKAvK-123">
          <mxGeometry y="120" width="180" height="30" as="geometry" />
        </mxCell>
        <mxCell id="4a5pVwGopF1X1H-UKAvK-137" value="FK" style="shape=partialRectangle;html=1;whiteSpace=wrap;connectable=0;fillColor=none;top=0;left=0;bottom=0;right=0;overflow=hidden;fontStyle=1" vertex="1" parent="4a5pVwGopF1X1H-UKAvK-136">
          <mxGeometry width="40" height="30" as="geometry" />
        </mxCell>
        <mxCell id="4a5pVwGopF1X1H-UKAvK-138" value="film_id (int25)" style="shape=partialRectangle;html=1;whiteSpace=wrap;connectable=0;fillColor=none;top=0;left=0;bottom=0;right=0;align=left;spacingLeft=6;overflow=hidden;" vertex="1" parent="4a5pVwGopF1X1H-UKAvK-136">
          <mxGeometry x="40" width="140" height="30" as="geometry" />
        </mxCell>
        <mxCell id="4a5pVwGopF1X1H-UKAvK-139" value="&lt;b&gt;Restrictions&lt;/b&gt;" style="shape=table;html=1;whiteSpace=wrap;startSize=30;container=1;collapsible=0;childLayout=tableLayout;fixedRows=1;rowLines=0;fontStyle=0;align=center;fillColor=#6d8764;strokeColor=#3A5431;fontColor=#ffffff;" vertex="1" parent="WIyWlLk6GJQsqaUBKTNV-1">
          <mxGeometry x="-320" y="480" width="200" height="100" as="geometry" />
        </mxCell>
        <mxCell id="4a5pVwGopF1X1H-UKAvK-140" value="" style="shape=partialRectangle;html=1;whiteSpace=wrap;collapsible=0;dropTarget=0;pointerEvents=0;fillColor=none;top=0;left=0;bottom=1;right=0;points=[[0,0.5],[1,0.5]];portConstraint=eastwest;" vertex="1" parent="4a5pVwGopF1X1H-UKAvK-139">
          <mxGeometry y="30" width="200" height="30" as="geometry" />
        </mxCell>
        <mxCell id="4a5pVwGopF1X1H-UKAvK-141" value="PK" style="shape=partialRectangle;html=1;whiteSpace=wrap;connectable=0;fillColor=none;top=0;left=0;bottom=0;right=0;overflow=hidden;fontStyle=1" vertex="1" parent="4a5pVwGopF1X1H-UKAvK-140">
          <mxGeometry width="40" height="30" as="geometry" />
        </mxCell>
        <mxCell id="4a5pVwGopF1X1H-UKAvK-142" value="restriction (varchar15)" style="shape=partialRectangle;html=1;whiteSpace=wrap;connectable=0;fillColor=none;top=0;left=0;bottom=0;right=0;align=left;spacingLeft=6;overflow=hidden;fontStyle=1" vertex="1" parent="4a5pVwGopF1X1H-UKAvK-140">
          <mxGeometry x="40" width="160" height="30" as="geometry" />
        </mxCell>
        <mxCell id="4a5pVwGopF1X1H-UKAvK-143" value="" style="shape=partialRectangle;html=1;whiteSpace=wrap;collapsible=0;dropTarget=0;pointerEvents=0;fillColor=none;top=0;left=0;bottom=0;right=0;points=[[0,0.5],[1,0.5]];portConstraint=eastwest;" vertex="1" parent="4a5pVwGopF1X1H-UKAvK-139">
          <mxGeometry y="60" width="200" height="30" as="geometry" />
        </mxCell>
        <mxCell id="4a5pVwGopF1X1H-UKAvK-144" value="" style="shape=partialRectangle;html=1;whiteSpace=wrap;connectable=0;fillColor=none;top=0;left=0;bottom=0;right=0;overflow=hidden;" vertex="1" parent="4a5pVwGopF1X1H-UKAvK-143">
          <mxGeometry width="40" height="30" as="geometry" />
        </mxCell>
        <mxCell id="4a5pVwGopF1X1H-UKAvK-145" value="description (varchar1000)" style="shape=partialRectangle;html=1;whiteSpace=wrap;connectable=0;fillColor=none;top=0;left=0;bottom=0;right=0;align=left;spacingLeft=6;overflow=hidden;" vertex="1" parent="4a5pVwGopF1X1H-UKAvK-143">
          <mxGeometry x="40" width="160" height="30" as="geometry" />
        </mxCell>
        <mxCell id="4a5pVwGopF1X1H-UKAvK-169" style="edgeStyle=none;rounded=0;orthogonalLoop=1;jettySize=auto;html=1;entryX=1;entryY=0.5;entryDx=0;entryDy=0;" edge="1" parent="4a5pVwGopF1X1H-UKAvK-139" source="4a5pVwGopF1X1H-UKAvK-140" target="4a5pVwGopF1X1H-UKAvK-140">
          <mxGeometry relative="1" as="geometry" />
        </mxCell>
        <mxCell id="4a5pVwGopF1X1H-UKAvK-149" value="" style="edgeStyle=entityRelationEdgeStyle;fontSize=12;html=1;endArrow=ERoneToMany;fillColor=#fa6800;strokeColor=#C73500;entryX=0;entryY=0.5;entryDx=0;entryDy=0;" edge="1" parent="WIyWlLk6GJQsqaUBKTNV-1" source="4a5pVwGopF1X1H-UKAvK-127" target="4a5pVwGopF1X1H-UKAvK-6">
          <mxGeometry width="100" height="100" relative="1" as="geometry">
            <mxPoint x="-100" y="325" as="sourcePoint" />
            <mxPoint x="-310" y="65" as="targetPoint" />
          </mxGeometry>
        </mxCell>
        <mxCell id="4a5pVwGopF1X1H-UKAvK-152" value="" style="edgeStyle=entityRelationEdgeStyle;fontSize=12;html=1;endArrow=ERoneToMany;exitX=1;exitY=0.5;exitDx=0;exitDy=0;entryX=0;entryY=0.5;entryDx=0;entryDy=0;fillColor=#fa6800;strokeColor=#C73500;" edge="1" parent="WIyWlLk6GJQsqaUBKTNV-1" source="4a5pVwGopF1X1H-UKAvK-130" target="4a5pVwGopF1X1H-UKAvK-46">
          <mxGeometry width="100" height="100" relative="1" as="geometry">
            <mxPoint x="-50" y="310" as="sourcePoint" />
            <mxPoint x="50" y="210" as="targetPoint" />
          </mxGeometry>
        </mxCell>
        <mxCell id="4a5pVwGopF1X1H-UKAvK-153" value="" style="edgeStyle=entityRelationEdgeStyle;fontSize=12;html=1;endArrow=ERoneToMany;exitX=1;exitY=0.5;exitDx=0;exitDy=0;entryX=0;entryY=0.5;entryDx=0;entryDy=0;fillColor=#fa6800;strokeColor=#C73500;" edge="1" parent="WIyWlLk6GJQsqaUBKTNV-1" source="4a5pVwGopF1X1H-UKAvK-136" target="4a5pVwGopF1X1H-UKAvK-35">
          <mxGeometry width="100" height="100" relative="1" as="geometry">
            <mxPoint x="-50" y="310" as="sourcePoint" />
            <mxPoint x="50" y="210" as="targetPoint" />
          </mxGeometry>
        </mxCell>
        <mxCell id="4a5pVwGopF1X1H-UKAvK-160" value="" style="edgeStyle=entityRelationEdgeStyle;fontSize=12;html=1;endArrow=ERoneToMany;fillColor=#6d8764;strokeColor=#3A5431;exitX=1;exitY=0.333;exitDx=0;exitDy=0;exitPerimeter=0;entryX=0;entryY=0.5;entryDx=0;entryDy=0;" edge="1" parent="WIyWlLk6GJQsqaUBKTNV-1" source="4a5pVwGopF1X1H-UKAvK-140" target="4a5pVwGopF1X1H-UKAvK-154">
          <mxGeometry width="100" height="100" relative="1" as="geometry">
            <mxPoint x="-110" y="520" as="sourcePoint" />
            <mxPoint x="-20" y="435" as="targetPoint" />
          </mxGeometry>
        </mxCell>
        <mxCell id="4a5pVwGopF1X1H-UKAvK-161" value="" style="edgeStyle=entityRelationEdgeStyle;fontSize=12;html=1;endArrow=ERoneToMany;fillColor=#6d8764;strokeColor=#3A5431;entryX=0;entryY=0.5;entryDx=0;entryDy=0;" edge="1" parent="WIyWlLk6GJQsqaUBKTNV-1" source="4a5pVwGopF1X1H-UKAvK-140" target="4a5pVwGopF1X1H-UKAvK-157">
          <mxGeometry width="100" height="100" relative="1" as="geometry">
            <mxPoint x="-90" y="530" as="sourcePoint" />
            <mxPoint x="300" y="425" as="targetPoint" />
          </mxGeometry>
        </mxCell>
        <mxCell id="4a5pVwGopF1X1H-UKAvK-162" value="" style="edgeStyle=entityRelationEdgeStyle;fontSize=12;html=1;endArrow=ERoneToMany;fillColor=#647687;strokeColor=#314354;" edge="1" parent="WIyWlLk6GJQsqaUBKTNV-1" target="4a5pVwGopF1X1H-UKAvK-56">
          <mxGeometry width="100" height="100" relative="1" as="geometry">
            <mxPoint x="510" y="315" as="sourcePoint" />
            <mxPoint x="260" y="260" as="targetPoint" />
          </mxGeometry>
        </mxCell>
        <mxCell id="4a5pVwGopF1X1H-UKAvK-163" value="" style="edgeStyle=entityRelationEdgeStyle;fontSize=12;html=1;endArrow=ERoneToMany;exitX=1;exitY=0.5;exitDx=0;exitDy=0;fillColor=#76608a;strokeColor=#432D57;entryX=0;entryY=0.5;entryDx=0;entryDy=0;" edge="1" parent="WIyWlLk6GJQsqaUBKTNV-1" source="4a5pVwGopF1X1H-UKAvK-38" target="4a5pVwGopF1X1H-UKAvK-56">
          <mxGeometry width="100" height="100" relative="1" as="geometry">
            <mxPoint x="160" y="360" as="sourcePoint" />
            <mxPoint x="-20" y="65" as="targetPoint" />
          </mxGeometry>
        </mxCell>
        <mxCell id="4a5pVwGopF1X1H-UKAvK-164" value="" style="edgeStyle=entityRelationEdgeStyle;fontSize=12;html=1;endArrow=ERoneToMany;fillColor=#fad9d5;strokeColor=#ae4132;entryX=1;entryY=0.5;entryDx=0;entryDy=0;" edge="1" parent="WIyWlLk6GJQsqaUBKTNV-1" source="4a5pVwGopF1X1H-UKAvK-102" target="4a5pVwGopF1X1H-UKAvK-66">
          <mxGeometry width="100" height="100" relative="1" as="geometry">
            <mxPoint x="160" y="380" as="sourcePoint" />
            <mxPoint x="280" y="95" as="targetPoint" />
          </mxGeometry>
        </mxCell>
        <mxCell id="4a5pVwGopF1X1H-UKAvK-165" value="" style="edgeStyle=entityRelationEdgeStyle;fontSize=12;html=1;endArrow=ERoneToMany;exitX=1;exitY=0.5;exitDx=0;exitDy=0;entryX=0;entryY=0.5;entryDx=0;entryDy=0;fillColor=#fad9d5;strokeColor=#ae4132;" edge="1" parent="WIyWlLk6GJQsqaUBKTNV-1" source="4a5pVwGopF1X1H-UKAvK-96" target="4a5pVwGopF1X1H-UKAvK-66">
          <mxGeometry width="100" height="100" relative="1" as="geometry">
            <mxPoint x="160" y="380" as="sourcePoint" />
            <mxPoint x="260" y="280" as="targetPoint" />
          </mxGeometry>
        </mxCell>
      </root>
    </mxGraphModel>
  </diagram>
</mxfile>
